<?xml version="1.0" encoding="UTF-8"?>
<svg id="Capa_1" data-name="Capa 1" xmlns="http://www.w3.org/2000/svg" viewBox="0 0 500 73.05">
  <defs>
    <style>
      .cls-1 {
        fill: #1d1d1b;
        stroke-width: 0px;
      }
    </style>
  </defs>
  <g>
    <path class="cls-1" d="M9.49,10.69c-.73-2.18-1.91-3.69-3.54-4.52s-3.62-1.25-5.94-1.25v-2.07h15.7l22.79,69.45h-8.72L9.49,10.69ZM35.98,72.29c0-2.76.2-6.07.6-9.92.4-3.85,1.14-7.38,2.24-10.58l14.17-41.22c.58-1.53.53-2.71-.16-3.54-.69-.83-1.87-1.4-3.54-1.69-1.67-.29-3.82-.44-6.43-.44v-2.07h25.73v2.07c-2.25,0-4.22.4-5.89,1.2-1.67.8-2.87,2.29-3.6,4.47l-20.28,61.71h-2.84Z"/>
    <path class="cls-1" d="M82.54,64.44c0,2.25.51,3.8,1.53,4.63,1.02.84,2.43,1.25,4.25,1.25v1.96h-19.84v-1.96c1.82,0,3.23-.42,4.25-1.25,1.02-.84,1.53-2.38,1.53-4.63V30.86c0-2.25-.51-3.8-1.53-4.63-1.02-.84-2.44-1.25-4.25-1.25v-1.96h14.07v41.43ZM71.31,7.09l6.98-7.09,7.09,7.09-7.09,7.09-6.98-7.09Z"/>
    <path class="cls-1" d="M121.03,44.38c4.07,1.24,6.98,3,8.72,5.29,1.74,2.29,2.62,5.22,2.62,8.78,0,5.6-1.76,9.43-5.29,11.5-3.53,2.07-7.83,3.11-12.92,3.11-4.43,0-8.18-.78-11.23-2.35-3.05-1.56-5.42-3.4-7.09-5.51v-14.72h1.53c.87,6.03,2.73,10.61,5.56,13.74,2.83,3.13,6.54,4.69,11.12,4.69,3.34,0,5.98-.8,7.9-2.4,1.93-1.6,2.89-3.89,2.89-6.87,0-2.11-.62-3.83-1.85-5.18-1.24-1.35-3.2-2.45-5.89-3.33l-9.49-2.83c-3.56-1.02-6.23-2.54-8.01-4.58-1.78-2.03-2.67-4.69-2.67-7.96,0-3.85,1.49-7.1,4.47-9.76,2.98-2.65,7.34-3.98,13.08-3.98,3.05,0,6.01.46,8.89,1.36,2.87.91,5.25,2.2,7.14,3.87l.87,13.08-1.42.11c-1.53-4.87-3.51-8.47-5.94-10.79-2.44-2.32-5.58-3.49-9.43-3.49-2.91,0-5.33.75-7.25,2.24-1.93,1.49-2.89,3.4-2.89,5.72,0,1.96.55,3.49,1.64,4.58s2.94,2.04,5.56,2.84l9.38,2.83Z"/>
    <path class="cls-1" d="M157.66,73.05c-4.87,0-8.47-1.33-10.79-3.98-2.33-2.65-3.49-6.74-3.49-12.27v-25.95c0-2.25-.51-3.8-1.53-4.63-1.02-.84-2.4-1.25-4.14-1.25v-1.96h14.07v31.29c0,5.02.62,8.65,1.85,10.9,1.24,2.25,3.45,3.38,6.65,3.38,3.85,0,6.98-2.07,9.38-6.21,2.4-4.14,3.6-10.79,3.6-19.95h2.84v16.46h-2.94c-.58,3.92-2.2,7.27-4.85,10.03-2.65,2.76-6.2,4.14-10.63,4.14ZM173.25,30.86c0-2.25-.51-3.8-1.53-4.63-1.02-.84-2.44-1.25-4.25-1.25v-1.96h14.07v41.43c0,2.25.51,3.8,1.53,4.63,1.02.84,2.43,1.25,4.25,1.25v1.96h-14.07V30.86Z"/>
    <path class="cls-1" d="M225.26,72.29v-14.72h-.44c-1.02,4.43-2.76,8.12-5.23,11.07-2.47,2.94-6.03,4.42-10.69,4.42s-7.85-1.38-10.25-4.14c-2.4-2.76-3.6-7.01-3.6-12.76,0-3.13.36-6.11,1.09-8.94l32.06-3.16v2.18l-24.2,4.25c-.51,1.74-.76,3.89-.76,6.43,0,3.49.67,6.2,2.02,8.12,1.34,1.93,3.4,2.89,6.16,2.89,2.98,0,5.51-1.16,7.58-3.49s3.6-5.43,4.58-9.32c.98-3.89,1.47-8.23,1.47-13.03s-.86-8.74-2.56-11.61c-1.71-2.87-4.63-4.31-8.78-4.31-3.2,0-5.63.84-7.31,2.51s-2.51,3.71-2.51,6.11c0,.95.13,1.76.38,2.45.25.69.56,1.25.93,1.69v.33l-8.29.87c-.51-1.53-.76-2.94-.76-4.25,0-3.92,1.56-7.21,4.69-9.87,3.12-2.65,7.59-3.98,13.41-3.98,5.45,0,9.54,1.16,12.27,3.49,2.73,2.33,4.45,5.12,5.18,8.4.73,3.27,1.09,7.12,1.09,11.56v18.97c0,2.25.51,3.8,1.53,4.63,1.02.84,2.4,1.25,4.14,1.25v1.96h-13.19Z"/>
    <path class="cls-1" d="M256.88,64.44c0,2.25.51,3.8,1.53,4.63,1.02.84,2.43,1.25,4.25,1.25v1.96h-19.84v-1.96c1.82,0,3.23-.42,4.25-1.25,1.02-.84,1.53-2.38,1.53-4.63V10.69c0-2.25-.51-3.8-1.53-4.63-1.02-.83-2.44-1.25-4.25-1.25v-1.96h14.07v61.6Z"/>
  </g>
  <g>
    <path class="cls-1" d="M268.66,65.01h13.91V28.64l-10.24.89v-6.96l11.43-.99c4.67-.4,6.46,2.19,6.46,5.96v37.47h13.91v6.96h-35.48v-6.96ZM278,7.77c0-3.78,3.08-6.86,7.16-6.86s7.15,3.08,7.15,6.86c0,3.98-3.18,6.96-7.15,6.96s-7.16-2.98-7.16-6.96Z"/>
    <path class="cls-1" d="M310.19,57.07l42.93-26.53v-2.29l-5.57,1.29h-37.37v-6.96h45.32v14.91l-42.93,26.53v2.29l5.57-1.29h37.37v6.96h-45.32v-14.91Z"/>
    <path class="cls-1" d="M386.31,21.59c13.91,0,23.06,8.85,23.06,24.05v3.18h-39.06c.5,9.34,4.97,17.39,17.19,17.39,8.15,0,13.62-3.97,15.4-11.53h8.15c-1.89,7.65-7.85,18.29-23.55,18.29-17.69,0-25.14-12.13-25.14-26.34,0-15.9,9.94-25.04,23.95-25.04ZM401.42,42.65c0-7.95-5.27-14.21-15.11-14.21s-16,6.26-16,14.21h31.11Z"/>
    <path class="cls-1" d="M419.8,28.44c0-4.67,2.19-6.96,6.86-6.76l27.43.89v6.96l-26.14-.89v43.33h-8.15V28.44Z"/>
    <path class="cls-1" d="M480.52,72.97c-16,0-22.56-7.45-22.56-19.18h8.15c0,8.55,4.97,12.52,14.51,12.52,7.65,0,11.23-1.79,11.23-6.86,0-6.46-6.66-7.55-14.71-10.04-9.34-2.98-16.89-5.86-16.89-14.81,0-7.85,6.66-13.02,17.99-13.02,15.4,0,20.07,8.45,20.07,16.6h-8.15c0-6.66-4.07-9.94-11.93-9.94-5.47,0-9.84,1.59-9.84,6.06,0,4.77,3.38,6.26,11.33,8.85,9.74,3.18,20.27,5.37,20.27,16,0,7.45-4.67,13.81-19.48,13.81Z"/>
  </g>
</svg>